<svg xmlns="http://www.w3.org/2000/svg" viewBox="0 0 512 512" fill="#4f46e5">
  <path d="M192 96v-32c0-17.62 14.38-32 32-32s32 14.38 32 32v32h64v-32c0-53-43-96-96-96s-96 43-96 96v32H192zM256 256c35.35 0 64-28.65 64-64c0-35.35-28.65-64-64-64s-64 28.65-64 64C192 227.3 220.7 256 256 256zM320 448h-128c-2.875 0-5.125-2.5-4.75-5.375l4-30.25c.25-2.25 2.125-3.875 4.375-3.875h120.8c2.25 0 4.125 1.625 4.375 3.875l4 30.25C325.1 445.5 322.9 448 320 448zM256 512c53 0 96-43 96-96V240c0-61.86-50.14-112-112-112s-112 50.14-112 112v16C128 309.5 165.5 352 224 352h70.62l-16.5 61.88c-1.5 5.625 2.5 11.12 8.375 11.12h10.75c3.5 0 6.625-2.25 7.75-5.625L328.5 352H352v64C352 469 309 512 256 512zM416 416v-61.38C415 334.5 394.5 321.4 376 323.8C367.1 324.9 359.6 328.1 352 325.9V416c0 10.12-1.5 19.75-4.125 29c48.63-17.62 68.12-72.5 68.12-88.5L416 416z"/>
</svg> 