<svg xmlns="http://www.w3.org/2000/svg" viewBox="0 0 512 512" fill="#4f46e5">
  <path d="M256 0C114.6 0 0 114.6 0 256s114.6 256 256 256s256-114.6 256-256S397.4 0 256 0zM369.2 107.7C381.4 111.8 390 123.1 390 137v18c0 13.89-8.594 26.07-20.78 30.99c-12.14 4.803-26.11 1.721-35.33-7.689L327.8 172.2L301.5 216.5l36.92 36.92c5.5 5.5 5.5 14.41 0 19.91l-49.58 49.58c-5.5 5.5-14.41 5.375-19.77 0l-37.05-37.05l-44.28 26.27l6.059 6.059c9.297 9.297 12.54 23.28 7.68 35.52C196.7 367.4 184.5 376 170.6 376H152.7c-13.87 0-26.07-8.594-30.99-20.78C116.9 343.1 119.1 329.1 129.2 319.8L323.9 125.3C332.9 116.3 346.9 113.2 369.2 107.7zM176.4 351.4c1.891 3.781 6.422 5.125 10 2.984c3.625-2.172 4.422-7.141 1.766-10.38l-75.08-92.73c-3.078-3.78-8.688-3.78-11.47 0C98.93 254.9 98.93 260.5 102 264.3L176.4 351.4zM381.9 381.1c-3.797-3.031-9.344-2.406-12.38 1.344c-3.062 3.797-2.438 9.344 1.344 12.38l79.05 63.25C452.8 460.7 456.5 462 460.3 462c2.906 0 5.781-1.25 7.781-3.672c3.031-3.797 2.406-9.344-1.344-12.38L381.9 381.1zM350.3 350.3c-3.797-3.031-9.344-2.406-12.38 1.344c-3.062 3.797-2.438 9.344 1.344 12.38l79.05 63.25C421.1 429.9 424.9 431.3 428.7 431.3c2.906 0 5.781-1.25 7.781-3.672c3.031-3.797 2.406-9.344-1.344-12.38L350.3 350.3zM318.9 318.9c-3.797-3.031-9.344-2.406-12.38 1.344c-3.062 3.797-2.438 9.344 1.344 12.38l79.05 63.25C389.7 398.5 393.4 399.9 397.2 399.9c2.906 0 5.781-1.25 7.781-3.672c3.031-3.797 2.406-9.344-1.344-12.38L318.9 318.9z"/>
</svg> 